<mxfile host="app.diagrams.net" agent="Mozilla/5.0 (Windows NT 10.0; Win64; x64) AppleWebKit/537.36 (KHTML, like Gecko) Chrome/128.0.0.0 Safari/537.36 Edg/128.0.0.0" version="24.7.12">
  <diagram name="Página-1" id="Hiv6RKF6de226eRRTs46">
    <mxGraphModel dx="1426" dy="749" grid="1" gridSize="10" guides="1" tooltips="1" connect="1" arrows="1" fold="1" page="1" pageScale="1" pageWidth="827" pageHeight="1169" math="0" shadow="0">
      <root>
        <mxCell id="0" />
        <mxCell id="1" parent="0" />
        <mxCell id="T-CPQaU_T2SkgidZqppq-9" style="edgeStyle=orthogonalEdgeStyle;rounded=0;orthogonalLoop=1;jettySize=auto;html=1;exitX=0.5;exitY=1;exitDx=0;exitDy=0;labelBackgroundColor=none;fontColor=default;" edge="1" parent="1" source="T-CPQaU_T2SkgidZqppq-6" target="T-CPQaU_T2SkgidZqppq-6">
          <mxGeometry relative="1" as="geometry" />
        </mxCell>
        <mxCell id="T-CPQaU_T2SkgidZqppq-10" style="edgeStyle=orthogonalEdgeStyle;rounded=0;orthogonalLoop=1;jettySize=auto;html=1;exitX=0.5;exitY=0.5;exitDx=0;exitDy=0;exitPerimeter=0;labelBackgroundColor=none;fontColor=default;" edge="1" parent="1" source="T-CPQaU_T2SkgidZqppq-1">
          <mxGeometry relative="1" as="geometry">
            <mxPoint x="215" y="380" as="targetPoint" />
          </mxGeometry>
        </mxCell>
        <mxCell id="T-CPQaU_T2SkgidZqppq-14" style="edgeStyle=orthogonalEdgeStyle;rounded=0;orthogonalLoop=1;jettySize=auto;html=1;exitX=0.5;exitY=0.5;exitDx=0;exitDy=0;exitPerimeter=0;entryX=0;entryY=0.5;entryDx=0;entryDy=0;labelBackgroundColor=none;fontColor=default;" edge="1" parent="1" source="T-CPQaU_T2SkgidZqppq-1" target="T-CPQaU_T2SkgidZqppq-7">
          <mxGeometry relative="1" as="geometry" />
        </mxCell>
        <mxCell id="T-CPQaU_T2SkgidZqppq-20" style="edgeStyle=orthogonalEdgeStyle;rounded=0;orthogonalLoop=1;jettySize=auto;html=1;exitX=0.5;exitY=0.5;exitDx=0;exitDy=0;exitPerimeter=0;entryX=0;entryY=0.5;entryDx=0;entryDy=0;" edge="1" parent="1" source="T-CPQaU_T2SkgidZqppq-1" target="T-CPQaU_T2SkgidZqppq-4">
          <mxGeometry relative="1" as="geometry" />
        </mxCell>
        <mxCell id="T-CPQaU_T2SkgidZqppq-1" value="Professor" style="shape=umlActor;verticalLabelPosition=bottom;verticalAlign=top;html=1;outlineConnect=0;labelBackgroundColor=none;" vertex="1" parent="1">
          <mxGeometry x="200" y="350" width="30" height="60" as="geometry" />
        </mxCell>
        <mxCell id="T-CPQaU_T2SkgidZqppq-21" style="edgeStyle=orthogonalEdgeStyle;rounded=0;orthogonalLoop=1;jettySize=auto;html=1;exitX=0.5;exitY=1;exitDx=0;exitDy=0;dashed=1;" edge="1" parent="1" source="T-CPQaU_T2SkgidZqppq-4" target="T-CPQaU_T2SkgidZqppq-6">
          <mxGeometry relative="1" as="geometry" />
        </mxCell>
        <mxCell id="T-CPQaU_T2SkgidZqppq-4" value="Login" style="ellipse;whiteSpace=wrap;html=1;labelBackgroundColor=none;" vertex="1" parent="1">
          <mxGeometry x="490" y="190" width="180" height="80" as="geometry" />
        </mxCell>
        <mxCell id="T-CPQaU_T2SkgidZqppq-16" value="" style="edgeStyle=orthogonalEdgeStyle;rounded=0;orthogonalLoop=1;jettySize=auto;html=1;dashed=1;labelBackgroundColor=none;fontColor=default;" edge="1" parent="1" source="T-CPQaU_T2SkgidZqppq-6" target="T-CPQaU_T2SkgidZqppq-7">
          <mxGeometry relative="1" as="geometry" />
        </mxCell>
        <mxCell id="T-CPQaU_T2SkgidZqppq-23" style="edgeStyle=orthogonalEdgeStyle;rounded=0;orthogonalLoop=1;jettySize=auto;html=1;exitX=0.5;exitY=1;exitDx=0;exitDy=0;entryX=0.5;entryY=0;entryDx=0;entryDy=0;dashed=1;" edge="1" parent="1" source="T-CPQaU_T2SkgidZqppq-6" target="T-CPQaU_T2SkgidZqppq-19">
          <mxGeometry relative="1" as="geometry" />
        </mxCell>
        <mxCell id="T-CPQaU_T2SkgidZqppq-6" value="Entrar em Turma" style="ellipse;whiteSpace=wrap;html=1;labelBackgroundColor=none;" vertex="1" parent="1">
          <mxGeometry x="490" y="330" width="180" height="80" as="geometry" />
        </mxCell>
        <mxCell id="T-CPQaU_T2SkgidZqppq-7" value="Fazer Chamada" style="ellipse;whiteSpace=wrap;html=1;labelBackgroundColor=none;" vertex="1" parent="1">
          <mxGeometry x="370" y="480" width="180" height="80" as="geometry" />
        </mxCell>
        <mxCell id="T-CPQaU_T2SkgidZqppq-19" value="Ver Lista de Frequência da Turma" style="ellipse;whiteSpace=wrap;html=1;labelBackgroundColor=none;" vertex="1" parent="1">
          <mxGeometry x="590" y="480" width="180" height="80" as="geometry" />
        </mxCell>
      </root>
    </mxGraphModel>
  </diagram>
</mxfile>
